{
  "accessors": [
    {
      "bufferView": 2,
      "componentType": 5126,
      "count": 13529,
      "max": [
        0.058483999222517014,
        -0.0011780000058934093,
        0.12832799553871155
      ],
      "min": [
        -0.051748000085353851,
        -0.10086400061845779,
        -0.17366500198841095
      ],
      "type": "VEC3"
    },
    {
      "bufferView": 2,
      "byteOffset": 162348,
      "componentType": 5126,
      "count": 13529,
      "max": [
        0.99998652935028076,
        0.99999749660491943,
        0.99999088048934937
      ],
      "min": [
        -0.99997997283935547,
        -0.99999046325683594,
        -0.99993336200714111
      ],
      "type": "VEC3"
    },
    {
      "bufferView": 3,
      "componentType": 5126,
      "count": 13529,
      "max": [
        0.99999994039535522,
        1,
        0.99999982118606567,
        1
      ],
      "min": [
        -1,
        -1,
        -0.99999994039535522,
        -1
      ],
      "type": "VEC4"
    },
    {
      "bufferView": 1,
      "componentType": 5126,
      "count": 13529,
      "max": [
        0.99500000476837158,
        0.87591397762298584
      ],
      "min": [
        0.004999999888241291,
        0.004999999888241291
      ],
      "type": "VEC2"
    },
    {
      "bufferView": 0,
      "componentType": 5125,
      "count": 64230,
      "max": [
        13528
      ],
      "min": [
        0
      ],
      "type": "SCALAR"
    }
  ],
  "asset": {
    "extras": {
      "author": "grafi (https://sketchfab.com/zdenkoroman)",
      "license": "CC-BY-4.0 (http://creativecommons.org/licenses/by/4.0/)",
      "source": "https://sketchfab.com/3d-models/lasocki-shoe-black-3d-scan-0825f868a57a455c895e4f9b4613ca59",
      "title": "Lasocki Shoe Black 3D Scan"
    },
    "generator": "Sketchfab-9.94.0",
    "version": "2.0"
  },
  "bufferViews": [
    {
      "buffer": 0,
      "byteLength": 256920,
      "byteOffset": 0,
      "name": "floatBufferViews",
      "target": 34963
    },
    {
      "buffer": 0,
      "byteLength": 108232,
      "byteOffset": 256920,
      "byteStride": 8,
      "name": "floatBufferViews",
      "target": 34962
    },
    {
      "buffer": 0,
      "byteLength": 324696,
      "byteOffset": 365152,
      "byteStride": 12,
      "name": "floatBufferViews",
      "target": 34962
    },
    {
      "buffer": 0,
      "byteLength": 216464,
      "byteOffset": 689848,
      "byteStride": 16,
      "name": "floatBufferViews",
      "target": 34962
    }
  ],
  "buffers": [
    {
      "byteLength": 906312,
      "uri": "scene.bin"
    }
  ],
  "images": [
    {
      "uri": "textures/topanky_Model_4_baseColor.jpeg"
    },
    {
      "uri": "textures/topanky_Model_4_metallicRoughness.png"
    },
    {
      "uri": "textures/topanky_Model_4_normal.png"
    }
  ],
  "materials": [
    {
      "doubleSided": true,
      "name": "topanky_Model_4",
      "normalTexture": {
        "index": 2,
        "scale": 1,
        "texCoord": 0
      },
      "occlusionTexture": {
        "index": 1,
        "strength": 1,
        "texCoord": 0
      },
      "pbrMetallicRoughness": {
        "baseColorFactor": [
          1,
          1,
          1,
          1
        ],
        "baseColorTexture": {
          "index": 0,
          "texCoord": 0
        },
        "metallicFactor": 0.58540667238202948,
        "metallicRoughnessTexture": {
          "index": 1,
          "texCoord": 0
        },
        "roughnessFactor": 1
      }
    }
  ],
  "meshes": [
    {
      "primitives": [
        {
          "attributes": {
            "NORMAL": 1,
            "POSITION": 0,
            "TANGENT": 2,
            "TEXCOORD_0": 3
          },
          "indices": 4,
          "material": 0,
          "mode": 4
        }
      ]
    }
  ],
  "nodes": [
    {
      "children": [
        1
      ],
      "name": "RootNode (gltf orientation matrix)",
      "rotation": [
        -0.70710678118654746,
        -0,
        -0,
        0.70710678118654757
      ]
    },
    {
      "children": [
        2
      ],
      "matrix": [
        -0.99998784065246582,
        0.0049290424212813377,
        1.1102230246251565e-16,
        0,
        -1.1102230246251565e-16,
        -1.1102230246251565e-16,
        -1,
        0,
        -0.0049290424212813377,
        -0.99998784065246582,
        -1.1102230246251565e-16,
        0,
        0.0066243438050150871,
        -0.073705732822418213,
        -0.073689408600330353,
        1
      ],
      "name": "RootNode (model correction matrix)"
    },
    {
      "children": [
        3
      ],
      "name": "topanky_low.obj.cleaner.materialmerger.gles"
    },
    {
      "mesh": 0,
      "name": ""
    }
  ],
  "samplers": [
    {
      "magFilter": 9729,
      "minFilter": 9987,
      "wrapS": 10497,
      "wrapT": 10497
    }
  ],
  "scene": 0,
  "scenes": [
    {
      "name": "OSG_Scene",
      "nodes": [
        0
      ]
    }
  ],
  "textures": [
    {
      "sampler": 0,
      "source": 0
    },
    {
      "sampler": 0,
      "source": 1
    },
    {
      "sampler": 0,
      "source": 2
    }
  ]
}

